<svg width="24" height="24" viewBox="0 0 24 24" fill="none" xmlns="http://www.w3.org/2000/svg">
<g clip-path="url(#clip0_43_173)">
<rect width="24" height="24" rx="5" fill="#1F1F1F"/>
<path d="M9.6002 19.2001C10.9262 19.2001 12.0002 18.1261 12.0002 16.8001V14.4001H9.6002C8.2742 14.4001 7.2002 15.4741 7.2002 16.8001C7.2002 18.1261 8.2742 19.2001 9.6002 19.2001Z" fill="#0ACF83"/>
<path d="M7.2002 12.0001C7.2002 10.6741 8.2742 9.6001 9.6002 9.6001H12.0002V14.4001H9.6002C8.2742 14.4001 7.2002 13.3261 7.2002 12.0001Z" fill="#A259FF"/>
<path d="M7.2002 7.20005C7.2002 5.87405 8.2742 4.80005 9.6002 4.80005H12.0002V9.60005H9.6002C8.2742 9.60005 7.2002 8.52605 7.2002 7.20005Z" fill="#F24E1E"/>
<path d="M12 4.80005H14.4C15.726 4.80005 16.8 5.87405 16.8 7.20005C16.8 8.52605 15.726 9.60005 14.4 9.60005H12V4.80005Z" fill="#FF7262"/>
<path d="M16.8 12.0001C16.8 13.3261 15.726 14.4001 14.4 14.4001C13.074 14.4001 12 13.3261 12 12.0001C12 10.6741 13.074 9.6001 14.4 9.6001C15.726 9.6001 16.8 10.6741 16.8 12.0001Z" fill="#1ABCFE"/>
</g>
<defs>
<clipPath id="clip0_43_173">
<rect width="24" height="24" fill="white"/>
</clipPath>
</defs>
</svg>
