<?xml version="1.0" encoding="utf-8"?><svg viewBox="0 0 512 512" xmlns="http://www.w3.org/2000/svg" xmlns:xlink="http://www.w3.org/1999/xlink"><style>:root>svg{display:none}:root>svg:target{display:block}</style><svg viewBox="0 0 20 21" id="arrow-1" xmlns="http://www.w3.org/2000/svg"><path d="M4.08 5.916h9.925v10.306m-.139-10.494L.91 18.682"/></svg><svg viewBox="0 0 24 24" id="cross" xmlns="http://www.w3.org/2000/svg"><path d="M18 6a1 1 0 00-1.414 0L12 10.586 7.414 6A1 1 0 006 6a1 1 0 000 1.414L10.586 12 6 16.586A1 1 0 006 18a1 1 0 001.414 0L12 13.414 16.586 18A1 1 0 0018 18a1 1 0 000-1.414L13.414 12 18 7.414A1 1 0 0018 6z"/></svg></svg>