<?xml version="1.0" encoding="utf-8"?><svg viewBox="0 0 512 512" xmlns="http://www.w3.org/2000/svg" xmlns:xlink="http://www.w3.org/1999/xlink"><style>:root>svg{display:none}:root>svg:target{display:block}</style><svg viewBox="0 0 20 21" id="arrow-1" xmlns="http://www.w3.org/2000/svg"><path d="M4.08 5.916h9.925v10.306m-.139-10.494L.91 18.682"/></svg><svg viewBox="0 0 24 24" id="cross" xmlns="http://www.w3.org/2000/svg"><path d="M18 6a1 1 0 00-1.414 0L12 10.586 7.414 6A1 1 0 006 6a1 1 0 000 1.414L10.586 12 6 16.586A1 1 0 006 18a1 1 0 001.414 0L12 13.414 16.586 18A1 1 0 0018 18a1 1 0 000-1.414L13.414 12 18 7.414A1 1 0 0018 6z"/></svg><svg viewBox="0 0 81 16" id="left-arrow" xmlns="http://www.w3.org/2000/svg"><path d="M.293 7.293a1 1 0 000 1.414l6.364 6.364a1 1 0 001.414-1.414L2.414 8l5.657-5.657A1 1 0 006.657.93L.293 7.293zM81 7H1v2h80V7z"/></svg><svg viewBox="0 0 512 512" id="link" xmlns="http://www.w3.org/2000/svg"><path d="M476.853 35.148c-46.864-46.864-122.842-46.864-169.706-.001L206.853 135.441c-48.475 48.477-43.987 125.717 0 169.706 7.366 7.366 15.516 13.372 24.122 18.305l18.305-18.305c12.006-12.008 7.78-26.045 7.564-36.174-2.635-1.868-5.198-3.887-7.564-6.253-22.573-22.571-23.588-61.265 0-84.853L349.572 77.575c23.399-23.399 61.454-23.399 84.853 0 23.399 23.399 23.399 61.454 0 84.853l-66.293 66.293c1.917 10.607 13.422 35.733 7.504 77.181.289-.284.635-.467.923-.754l100.294-100.294c46.862-46.864 46.862-122.842 0-169.706z"/><path d="M312.918 199.081c-7.365-7.366-15.516-13.372-24.12-18.305l-18.305 18.305c-12.008 12.006-7.782 26.043-7.566 36.172 2.637 1.868 5.2 3.887 7.566 6.253 22.573 22.573 23.588 61.265 0 84.853L162.427 434.425c-23.399 23.399-61.454 23.399-84.853 0-23.399-23.399-23.399-61.454 0-84.853l74.067-74.067c-1.917-10.607-13.423-35.733-7.504-77.181-.289.284-.637.469-.925.756L35.147 307.147c-46.862 46.864-46.862 122.842 0 169.706 46.864 46.862 122.841 46.862 169.705 0l108.066-108.066c47.576-47.576 44.976-124.731 0-169.706z"/></svg><svg viewBox="0 0 81 16" id="right-arrow" xmlns="http://www.w3.org/2000/svg"><path d="M80.707 8.707a1 1 0 000-1.414L74.343.929a1 1 0 10-1.414 1.414L78.586 8l-5.657 5.657a1 1 0 001.414 1.414l6.364-6.364zM0 9h80V7H0v2z"/></svg></svg>