<svg width="24" height="24" viewBox="0 0 24 24" fill="none" xmlns="http://www.w3.org/2000/svg">
<g clip-path="url(#clip0_43_158)">
<rect width="24" height="24" rx="5" fill="#1F1F1F"/>
<g clip-path="url(#clip1_43_158)">
<path d="M16.0987 7.82912C16.0987 7.82912 17.1613 7.4029 17.0727 8.43798C17.0432 8.86415 16.7776 10.3558 16.571 11.9693L15.8625 16.7488C15.8625 16.7488 15.8035 17.449 15.2722 17.5708C14.7408 17.6925 13.9438 17.1446 13.7962 17.0228C13.6782 16.9315 11.5824 15.5616 10.8444 14.8918C10.6378 14.7092 10.4017 14.3439 10.874 13.9177L13.9734 10.8734C14.3276 10.5081 14.6818 9.6557 13.2059 10.6907L9.07336 13.5828C9.07336 13.5828 8.60107 13.8872 7.71557 13.6132L5.79689 13.0044C5.79689 13.0044 5.08846 12.5478 6.29867 12.0911C9.25051 10.6603 12.8812 9.19901 16.0987 7.82912Z" fill="#F9EC0E"/>
</g>
</g>
<defs>
<clipPath id="clip0_43_158">
<rect width="24" height="24" fill="white"/>
</clipPath>
<clipPath id="clip1_43_158">
<rect width="18.4615" height="18.4615" fill="white" transform="translate(2.95361 2.58472)"/>
</clipPath>
</defs>
</svg>
