<svg width="66" height="88" viewBox="0 0 66 88" fill="none" xmlns="http://www.w3.org/2000/svg">
<path d="M0.607954 88V0.72727H34.017C40.3239 0.72727 45.5653 1.72159 49.7415 3.71022C53.946 5.67045 57.0852 8.35511 59.1591 11.7642C61.2614 15.1733 62.3125 19.0369 62.3125 23.3551C62.3125 26.9062 61.6307 29.946 60.267 32.4744C58.9034 34.9744 57.071 37.0057 54.7699 38.5682C52.4688 40.1307 49.8977 41.2528 47.0568 41.9347V42.7869C50.1534 42.9574 53.1222 43.9091 55.9631 45.642C58.8324 47.3466 61.1761 49.7614 62.9943 52.8864C64.8125 56.0114 65.7216 59.7898 65.7216 64.2216C65.7216 68.7386 64.6278 72.8011 62.4403 76.4091C60.2528 79.9886 56.9574 82.8153 52.554 84.8892C48.1506 86.9631 42.6108 88 35.9347 88H0.607954ZM16.4176 74.7898H33.4205C39.1591 74.7898 43.2926 73.696 45.821 71.5085C48.3778 69.2926 49.6562 66.4517 49.6562 62.9858C49.6562 60.4006 49.017 58.071 47.7386 55.9972C46.4602 53.8949 44.642 52.2472 42.2841 51.054C39.9261 49.8324 37.1136 49.2216 33.8466 49.2216H16.4176V74.7898ZM16.4176 37.8438H32.0568C34.7841 37.8438 37.2415 37.3466 39.429 36.3523C41.6165 35.3295 43.3352 33.8949 44.5852 32.0483C45.8636 30.1733 46.5028 27.9574 46.5028 25.4006C46.5028 22.0199 45.3097 19.2358 42.9233 17.0483C40.5653 14.8608 37.0568 13.767 32.3977 13.767H16.4176V37.8438Z" fill="#F9EC0E"/>
</svg>
