<svg width="145" height="144" viewBox="0 0 145 144" fill="none" xmlns="http://www.w3.org/2000/svg">
<rect width="145" height="144" fill="#1F1F1F"/>
<path d="M41.608 116V28.7273H75.017C81.3239 28.7273 86.5653 29.7216 90.7415 31.7102C94.946 33.6705 98.0852 36.3551 100.159 39.7642C102.261 43.1733 103.312 47.0369 103.312 51.3551C103.312 54.9062 102.631 57.946 101.267 60.4744C99.9034 62.9744 98.071 65.0057 95.7699 66.5682C93.4688 68.1307 90.8977 69.2528 88.0568 69.9347V70.7869C91.1534 70.9574 94.1222 71.9091 96.9631 73.642C99.8324 75.3466 102.176 77.7614 103.994 80.8864C105.813 84.0114 106.722 87.7898 106.722 92.2216C106.722 96.7386 105.628 100.801 103.44 104.409C101.253 107.989 97.9574 110.815 93.554 112.889C89.1506 114.963 83.6108 116 76.9347 116H41.608ZM57.4176 102.79H74.4205C80.1591 102.79 84.2926 101.696 86.821 99.5085C89.3778 97.2926 90.6562 94.4517 90.6562 90.9858C90.6562 88.4006 90.017 86.071 88.7386 83.9972C87.4602 81.8949 85.642 80.2472 83.2841 79.054C80.9261 77.8324 78.1136 77.2216 74.8466 77.2216H57.4176V102.79ZM57.4176 65.8438H73.0568C75.7841 65.8438 78.2415 65.3466 80.429 64.3523C82.6165 63.3295 84.3352 61.8949 85.5852 60.0483C86.8636 58.1733 87.5028 55.9574 87.5028 53.4006C87.5028 50.0199 86.3097 47.2358 83.9233 45.0483C81.5653 42.8608 78.0568 41.767 73.3977 41.767H57.4176V65.8438Z" fill="#F9EC0E"/>
</svg>
